# xmcd CD database file
#
# Track frame offsets:
#	150
#	12793
#	28423
#	44660
#
# Disc length: 848 seconds
#
# Revision: 0
# Processed by: cddbd v1.5PL3 Copyright (c) Steve Scherf et al.
# Submitted via: CDex 1.50beta8
#
DISCID=2f034e04
DTITLE=pre-school - temple at the back
DYEAR=1900
DGENRE=Pop
TTITLE0=temple at the back
TTITLE1=highbred
TTITLE2=drive
TTITLE3=long-lived
EXTD=
EXTT0=
EXTT1=
EXTT2=
EXTT3=
PLAYORDER=
